<svg xmlns="http://www.w3.org/2000/svg" viewBox="0 0 201 175"><defs><style>.cls-1{fill:#3a3a3a;}.cls-2{fill:#e8e8e8;}.cls-3{fill:#509390;}.cls-4{fill:#3f3f3f;}.cls-5{fill:#5caaa8;}</style></defs><title>TunyCoder</title><g id="Layer_2" data-name="Layer 2"><path class="cls-1" d="M41.59,93.68v55.51c0,8.35,116.78,8.35,116.78,0V93.68Z"/><path class="cls-1" d="M157.27,73.39c-.49-8.31-7.21-14.46-15-13.74L53.7,67.76c-7.8.71-13.74,8-13.25,16.33l.58,10,116.82-10.7Z"/><polygon class="cls-2" points="73.2 91.11 61.08 92.22 59.62 67.22 71.73 66.11 73.2 91.11"/><polygon class="cls-2" points="105.5 88.15 93.39 89.26 91.92 64.26 104.04 63.15 105.5 88.15"/><polygon class="cls-2" points="137.8 85.19 125.69 86.3 124.22 61.3 136.34 60.19 137.8 85.19"/><polygon class="cls-2" points="87.61 100.91 87.61 145.08 120.61 123 87.61 100.91"/><path class="cls-3" d="M45.24,45.69a8.78,8.78,0,0,1-5.73-1.95c-2.56-2.25-1.82-4,1.34-5.85,8.22-4.76,17.16-10,27.08-12.57a130.92,130.92,0,0,1,63.55-.15c9.76,2.47,18.68,7.58,26.83,12.18,3.19,1.8,3.89,3.57,1.37,5.85s-7.16,2.66-10.35.86c-14.17-8-31.23-12.22-49.34-12.22s-36,4.5-50.11,12.67A9.36,9.36,0,0,1,45.24,45.69Z"/><path class="cls-4" d="M173.28,101.5l-4.17-2a54.86,54.86,0,0,0,7.63-11.29c3.08-6.07,6.13-15.2,3.19-24.3l-2.79-5.12C163.56,37.13,133.29,23.12,100,23.12c-35.08,0-66,15.06-78.71,38.37l-1.23,2.42c-2.95,9.11.09,18.25,3.18,24.32a55.47,55.47,0,0,0,7.63,11.3l-4.17,2a57.65,57.65,0,0,1-8.13-12C15.21,83,11.91,73,15.2,63l0-.1,1.36-2.68c6.47-11.84,17.65-22,32.33-29.25C64,23.49,81.62,19.55,100,19.55c17.63,0,34.68,3.65,49.32,10.56,14.27,6.74,25.48,16.17,32.43,27.29l0,.08,2.94,5.39,0,.12c3.29,10,0,20-3.37,26.55A57.4,57.4,0,0,1,173.28,101.5Z"/><path class="cls-3" d="M43.88,121.13c0,.7-1.46,1.58-3.25,2l-6.25,1.31c-1.8.38-3.25.12-3.25-.59l0-58.39c0-.7,1.46-1.57,3.25-1.95l6.25-1.31c1.79-.38,3.25-.11,3.25.59Z"/><path class="cls-5" d="M22.15,72.23c-6.21,1.3-11.25,5.16-11.25,8.62l0,36c0,3.46,5,5.21,11.25,3.9l9.14-1.91,0-48.53Z"/><path class="cls-5" d="M178.42,71.69c6.34,1.22,11.49,5,11.51,8.52l.2,36.28c0,3.48-5.11,5.32-11.45,4.09l-9.32-1.8-.26-48.89Z"/><path class="cls-3" d="M156.51,121.26c0,.71,1.5,1.57,3.33,1.92l6.37,1.23c1.83.36,3.31.07,3.31-.64L169.2,65c0-.71-1.5-1.57-3.33-1.92L159.5,61.8c-1.83-.36-3.31-.07-3.31.64Z"/></g></svg>